<svg xmlns="http://www.w3.org/2000/svg" width="382.246" height="111.988" viewBox="0 0 382.246 111.988">
  <g id="g10" transform="translate(0 173.368)">
    <g id="g12" transform="translate(0 -173.368)">
      <path id="path14" d="M.477-120.648l16.57,31.564a7.788,7.788,0,0,0,6.224,3.89h0l33.8-.071c2.308,0,3.26-1.755,2.129-3.909h0L42.631-120.736a7.776,7.776,0,0,0-6.224-3.89h0l-33.8.07-.155,0h0c-2.193.083-3.079,1.8-1.973,3.906" transform="translate(0 156.112)" fill="#a6bcd4"/>
      <path id="path16" d="M99.977-62.929l10.035,18.724a4.627,4.627,0,0,0,3.727,2.287h0l20.14-.213c1.375-.014,1.93-1.061,1.248-2.339h0L125.1-63.193a4.634,4.634,0,0,0-3.727-2.286h0l-20.141.212h-.069c-1.324.049-1.853,1.08-1.181,2.339" transform="translate(-35.293 135.171)" fill="#a6bcd4"/>
      <path id="path18" d="M88.643-172.221,68.506-146.373A7.06,7.06,0,0,0,68.1-139.3h0l16.836,31.421c1.148,2.143,3.195,2.452,4.569.691h0l20.14-25.853a7.057,7.057,0,0,0,.406-7.076h0L93.214-171.535a2.973,2.973,0,0,0-2.595-1.832h0a2.677,2.677,0,0,0-1.976,1.146" transform="translate(-23.842 173.368)" fill="#a6bcd4"/>
      <path id="path20" d="M86.059-61.421l-12,15.4a4.2,4.2,0,0,0-.244,4.215h0L83.844-23.081c.686,1.278,1.9,1.462,2.724.41h0l12-15.4a4.216,4.216,0,0,0,.245-4.216h0L88.78-61.012a1.771,1.771,0,0,0-1.546-1.094h0a1.575,1.575,0,0,0-1.175.684" transform="translate(-25.973 133.977)" fill="#a6bcd4"/>
      <path id="path22" d="M433.87-80.3h6.725v-50.62H433.87Z" transform="translate(-153.608 158.34)" fill="#a6bcd4"/>
      <path id="path24" d="M237.8-106.163A17.461,17.461,0,0,0,220.344-88.7h-.012v32.241h6.725V-88.7h.033a10.8,10.8,0,0,1,10.8-10.8,10.8,10.8,0,0,1,10.8,10.8,10.8,10.8,0,0,1-10.8,10.8,10.774,10.774,0,0,1-8.348-3.953v8.536a17.388,17.388,0,0,0,8.265,2.08A17.465,17.465,0,0,0,255.269-88.7,17.464,17.464,0,0,0,237.8-106.163" transform="translate(-78.007 149.575)" fill="#a6bcd4"/>
      <path id="path26" d="M296.473-106.163A17.46,17.46,0,0,0,279.013-88.7H279v32.241h6.723V-88.7h.035a10.8,10.8,0,0,1,10.8-10.8,10.8,10.8,0,0,1,10.8,10.8,10.8,10.8,0,0,1-10.8,10.8,10.774,10.774,0,0,1-8.348-3.953v8.536a17.4,17.4,0,0,0,8.267,2.08A17.464,17.464,0,0,0,313.935-88.7a17.463,17.463,0,0,0-17.461-17.463" transform="translate(-98.778 149.575)" fill="#a6bcd4"/>
      <path id="path28" d="M177.369-130.922a17.462,17.462,0,0,0-17.461,17.463V-80.3h6.725v-33.157h.01a10.727,10.727,0,0,1,10.729-10.729A10.726,10.726,0,0,1,188.1-113.459h.009v3.8H170.83v6.723h17.276V-80.3h6.728v-33.157a17.465,17.465,0,0,0-17.466-17.463" transform="translate(-56.614 158.34)" fill="#a6bcd4"/>
      <path id="path30" d="M395.423-113.459a10.735,10.735,0,0,1,10.737-10.733v0h8.466v-6.727h-8.468A17.465,17.465,0,0,0,388.7-113.459V-80.3h6.726V-102.25h18.583v-6.725H395.423v-4.484" transform="translate(-137.616 158.34)" fill="#a6bcd4"/>
      <path id="path32" d="M475.591-105.822v21.138h0a7.828,7.828,0,0,1-7.829,7.676,7.824,7.824,0,0,1-7.819-7.676h-.009v-21.138h-6.722v21.159h.01A14.545,14.545,0,0,0,464.4-70.691v14.352h6.723V-70.691a14.548,14.548,0,0,0,11.184-13.972h.005v-21.159h-6.722" transform="translate(-160.455 149.454)" fill="#a6bcd4"/>
      <path id="path34" d="M531.112-86.055a10.658,10.658,0,0,1-5.026,6.65,10.73,10.73,0,0,1-14.663-3.924,10.736,10.736,0,0,1,3.929-14.664A10.727,10.727,0,0,1,527.858-96.7l-15.1,8.718,3.363,5.826,6.989-4.037h0l14.13-8.158a17.479,17.479,0,0,0-1.4-3.075,17.465,17.465,0,0,0-23.856-6.39,17.459,17.459,0,0,0-6.39,23.853,17.462,17.462,0,0,0,23.851,6.393,17.409,17.409,0,0,0,8.526-12.481h-6.862" transform="translate(-178.173 149.575)" fill="#a6bcd4"/>
      <path id="path36" d="M580.07-106.163a17.357,17.357,0,0,0-10.732,3.7V-106h-6.727v34.467h6.727V-88.7h0A10.733,10.733,0,0,1,580.07-99.435v0h1.363v-6.724H580.07" transform="translate(-199.188 149.575)" fill="#a6bcd4"/>
      <path id="path38" d="M359.223-87,342.5-94.8l.005-.006a1.657,1.657,0,0,1-.769-2.183,1.651,1.651,0,0,1,1.5-.951v-.014h19.084v-6.725H343.231v.009a8.38,8.38,0,0,0-7.6,4.836A8.386,8.386,0,0,0,339.654-88.7h0l16.728,7.8,0,0s0,0,.006,0a1.653,1.653,0,0,1,.8,2.2,1.648,1.648,0,0,1-1.507.952v.009H336.127v6.721h19.554v0a8.38,8.38,0,0,0,7.6-4.838A8.381,8.381,0,0,0,359.223-87" transform="translate(-118.548 149.048)" fill="#a6bcd4"/>
    </g>
  </g>
</svg>
