<svg xmlns="http://www.w3.org/2000/svg" width="86.406" height="31.336" viewBox="0 0 86.406 31.336">
  <g id="branchlogo" transform="translate(988.297 -1784.258)">
    <g id="Group_39309" data-name="Group 39309" transform="translate(-988.297 1784.258)">
      <path id="Path_19749" data-name="Path 19749" d="M255565.422,99385.086a5.561,5.561,0,0,0-4.937,2.258v-10.3a.228.228,0,0,0-.219-.211h-1.969a.217.217,0,0,0-.219.211h0v23.852a.212.212,0,0,0,.219.211h1.969a.222.222,0,0,0,.219-.211h0v-1.8a5.165,5.165,0,0,0,2.125,1.75,6.665,6.665,0,0,0,2.813.57,5.853,5.853,0,0,0,4.813-2.148,9.381,9.381,0,0,0,1.734-6.031,9.242,9.242,0,0,0-1.719-6,5.839,5.839,0,0,0-4.828-2.148Zm3.172,12.4a3.68,3.68,0,0,1-3.234,1.484,4.191,4.191,0,0,1-3.484-1.328c-.734-.883-1.094-2.359-1.094-4.422,0-2.078.359-3.547,1.063-4.406a4.19,4.19,0,0,1,3.469-1.3,3.793,3.793,0,0,1,3.281,1.406,7.182,7.182,0,0,1,1.063,4.266,7.374,7.374,0,0,1-1.078,4.328Z" transform="translate(-255558.078 -99370.086)" fill="#a6bcd4"/>
      <path id="Path_19750" data-name="Path 19750" d="M256948.469,99641.7c-2.859,0-4.578,1.328-5.062,2.234v-1.734a.214.214,0,0,0-.2-.211h-1.969a.214.214,0,0,0-.2.211h0v15.328a.211.211,0,0,0,.2.219h1.969a.211.211,0,0,0,.2-.219h0v-7.836a6.748,6.748,0,0,1,1.156-4.414,4.587,4.587,0,0,1,3.625-1.586,3.565,3.565,0,0,1,2.734.945,4.085,4.085,0,0,1,.891,2.875v9.984a.217.217,0,0,0,.219.211h1.953a.217.217,0,0,0,.219-.211h0v-10.07a5.9,5.9,0,0,0-1.437-4.4,6.059,6.059,0,0,0-4.3-1.328Z" transform="translate(-256898.234 -99626.734)" fill="#a6bcd4"/>
      <path id="Path_19751" data-name="Path 19751" d="M257472.125,99642.688a8.176,8.176,0,0,0-1.594-.492,10.549,10.549,0,0,0-2.266-.258,6.942,6.942,0,0,0-5.437,2.164,8.933,8.933,0,0,0-1.891,6.117c0,2.625.625,4.617,1.859,5.953a6.728,6.728,0,0,0,5.3,2.109,8.817,8.817,0,0,0,3.859-.8.232.232,0,0,0,.125-.187v-1.664a.22.22,0,0,0-.2-.211.322.322,0,0,0-.094.008,10.253,10.253,0,0,1-3.734.734,4.058,4.058,0,0,1-3.484-1.586,7.123,7.123,0,0,1-1.172-4.453q0-6.129,4.813-6.125a7.517,7.517,0,0,1,1.656.211,11.11,11.11,0,0,1,1.516.445.2.2,0,0,0,.266-.109v-.016l.609-1.641A.236.236,0,0,0,257472.125,99642.688Z" transform="translate(-257402.063 -99626.977)" fill="#a6bcd4"/>
      <path id="Path_19752" data-name="Path 19752" d="M256462.719,99630.813a6.068,6.068,0,0,0-4.187-1.242,10.545,10.545,0,0,0-2.75.359,11.6,11.6,0,0,0-2.406.9.214.214,0,0,0-.062.266l.563,1.445a.217.217,0,0,0,.281.117h0a9.878,9.878,0,0,1,4.25-1.109,3.3,3.3,0,0,1,2.563.883,3.693,3.693,0,0,1,.688,1.961h-2.187a9.033,9.033,0,0,0-3.187.516,7.242,7.242,0,0,0-2.656,1.781,5.916,5.916,0,0,0-1.594,4.688,5.027,5.027,0,0,0,2.281,3.813,5.916,5.916,0,0,0,3.406,1.078,5.51,5.51,0,0,0,1.875-.328,5.935,5.935,0,0,0,2.156-1.328v1.164a.212.212,0,0,0,.219.211h1.875a.212.212,0,0,0,.219-.211h0v-10.836A5.509,5.509,0,0,0,256462.719,99630.813Zm-.906,8.3a5.24,5.24,0,0,1-3.094,5.031,3.6,3.6,0,0,1-3.281-.484,3.7,3.7,0,0,1-.656-5.2c.094-.1.188-.2.281-.289a5.246,5.246,0,0,1,1.906-1.273,6.844,6.844,0,0,1,2.469-.367h2.375v2.578Z" transform="translate(-256424.344 -99615)" fill="#a6bcd4"/>
      <path id="Path_19753" data-name="Path 19753" d="M256112.313,99648.07a11.141,11.141,0,0,0-1.687-.117,6.738,6.738,0,0,0-4.75,2.094v-1.578a.235.235,0,0,0-.219-.219h-1.969a.235.235,0,0,0-.219.219h0v15.32a.234.234,0,0,0,.219.211h1.969a.234.234,0,0,0,.219-.211h0v-8.3a5.621,5.621,0,0,1,1.344-3.859,4.209,4.209,0,0,1,3.281-1.578,7.524,7.524,0,0,1,1.5.156.208.208,0,0,0,.25-.172v-.008l.281-1.773a.212.212,0,0,0-.219-.18Z" transform="translate(-256086.594 -99632.813)" fill="#a6bcd4"/>
      <path id="Path_19754" data-name="Path 19754" d="M257737.563,99175.117a5.935,5.935,0,0,0-4.281-1.367c-2.844,0-4.562,1.328-5.031,2.234v-.172l-.094-2.891,2.531-1.586a1.983,1.983,0,1,0-.781-1.3l-1.812,1.125-.125-3.7,2.531-1.547a2.272,2.272,0,0,0,2.719-3.641,2.28,2.28,0,0,0-3.187.461,2.187,2.187,0,0,0-.375,1.906l-1.75,1.078-.094-2.953a2.067,2.067,0,1,0-2.687-1.187,2.136,2.136,0,0,0,1.188,1.188l-.187,6.117-1.906-1.2a2.355,2.355,0,0,0-1.781-2.844,2.377,2.377,0,1,0,1,4.141l2.625,1.672-.125,4.469-.062,2.375v12.063a.217.217,0,0,0,.219.211h1.969a.217.217,0,0,0,.219-.211h0v-7.844c0-2.047.375-3.531,1.156-4.414a4.472,4.472,0,0,1,3.25-1.539h.344a3.574,3.574,0,0,1,2.75.953,4,4,0,0,1,.875,2.875v9.984a.214.214,0,0,0,.219.219h1.969a.214.214,0,0,0,.219-.219h0v-10.07a5.929,5.929,0,0,0-1.5-4.391Z" transform="translate(-257652.656 -99158.781)" fill="#a6bcd4"/>
    </g>
    <path id="Path_19755" data-name="Path 19755" d="M1376.067,1811.038a1.249,1.249,0,1,1-1.249,1.249A1.25,1.25,0,0,1,1376.067,1811.038Z" transform="translate(-2289.995 -25.952)" fill="#a6bcd4"/>
    <path id="Path_19756" data-name="Path 19756" d="M1532.159,2102.851a1.141,1.141,0,1,1-1.141,1.141A1.14,1.14,0,0,1,1532.159,2102.851Z" transform="translate(-2441.362 -308.735)" fill="#a6bcd4"/>
    <path id="Path_19757" data-name="Path 19757" d="M1529.163,1915.616a1.337,1.337,0,1,1-.615,1.787A1.337,1.337,0,0,1,1529.163,1915.616Z" transform="translate(-2438.837 -127.163)" fill="#a6bcd4"/>
    <path id="Path_19758" data-name="Path 19758" d="M1203.179,2007.911a1.447,1.447,0,1,1-1.45,1.447A1.45,1.45,0,0,1,1203.179,2007.911Z" transform="translate(-2122.262 -216.733)" fill="#a6bcd4"/>
  </g>
</svg>
