<svg xmlns="http://www.w3.org/2000/svg" xmlns:xlink="http://www.w3.org/1999/xlink" width="250" height="40.882" viewBox="0 0 250 40.882">
  <defs>
    <clipPath id="clip-path">
      <rect id="Rectangle_4453" data-name="Rectangle 4453" width="250" height="40.882" fill="#043f83"/>
    </clipPath>
  </defs>
  <g id="Group_39243" data-name="Group 39243" transform="translate(0 -0.001)">
    <g id="Group_39242" data-name="Group 39242" transform="translate(0 0.001)" clip-path="url(#clip-path)">
      <path id="Path_19614" data-name="Path 19614" d="M20.358,35.316c0,4.592-3.777,7.3-10.171,7.3-4.377,0-8.84-1.331-9.742-5.15l6.781-2.1c.215.815.944,1.8,2.875,1.8,1.459,0,2.232-.644,2.232-1.545,0-1.331-1.845-1.416-4.377-1.974C3.75,32.7,1.132,31.2,1.132,26.947c0-4.549,4.248-7.167,9.7-7.167,3.734,0,7.639,1.8,8.583,5.493l-6.18,1.5a2.249,2.249,0,0,0-2.36-1.631C9.5,25.145,8.6,25.7,8.6,26.733c0,1.331,1.974,1.5,3.691,1.845,5.493,1.158,8.068,2.746,8.068,6.738" transform="translate(-0.226 -10.025)" fill="#043f83"/>
      <path id="Path_19615" data-name="Path 19615" d="M20.358,35.316c0,4.592-3.777,7.3-10.171,7.3-4.377,0-8.84-1.331-9.742-5.15l6.781-2.1c.215.815.944,1.8,2.875,1.8,1.459,0,2.232-.644,2.232-1.545,0-1.331-1.845-1.416-4.377-1.974C3.75,32.7,1.132,31.2,1.132,26.947c0-4.549,4.248-7.167,9.7-7.167,3.734,0,7.639,1.8,8.583,5.493l-6.18,1.5a2.249,2.249,0,0,0-2.36-1.631C9.5,25.145,8.6,25.7,8.6,26.733c0,1.331,1.974,1.5,3.691,1.845C17.783,29.737,20.358,31.325,20.358,35.316Z" transform="translate(-0.226 -10.025)" fill="#043f83"/>
      <path id="Path_19616" data-name="Path 19616" d="M70,31.2c0,5.707-3.348,11.415-10.085,11.415A7.148,7.148,0,0,1,54.2,40.295V50.337H46.478V20.3H54.2v1.76a7.269,7.269,0,0,1,5.708-2.274C66.648,19.781,70,25.489,70,31.2m-7.768,0a3.884,3.884,0,1,0-7.767,0,3.884,3.884,0,0,0,7.767,0" transform="translate(-23.557 -10.026)" fill="#043f83"/>
      <path id="Path_19617" data-name="Path 19617" d="M70,31.2c0,5.707-3.348,11.415-10.085,11.415A7.148,7.148,0,0,1,54.2,40.295V50.337H46.478V20.3H54.2v1.76a7.269,7.269,0,0,1,5.708-2.274C66.648,19.781,70,25.489,70,31.2Zm-7.768,0a3.884,3.884,0,1,0-7.767,0,3.884,3.884,0,0,0,7.767,0Z" transform="translate(-23.557 -10.026)" fill="#043f83"/>
      <path id="Path_19618" data-name="Path 19618" d="M114.462,19.78v8.369c-5.836-.687-6.48,2.232-6.48,5.707v8.2h-7.725V20.3h7.725v3.433a7.7,7.7,0,0,1,6.48-3.949" transform="translate(-50.814 -10.025)" fill="#043f83"/>
      <path id="Path_19619" data-name="Path 19619" d="M114.462,19.78v8.369c-5.836-.687-6.48,2.232-6.48,5.707v8.2h-7.725V20.3h7.725v3.433A7.7,7.7,0,0,1,114.462,19.78Z" transform="translate(-50.814 -10.025)" fill="#043f83"/>
      <path id="Path_19620" data-name="Path 19620" d="M135.238,4.367A4.034,4.034,0,1,1,139.273,8.4a4.021,4.021,0,0,1-4.035-4.035m.172,6.095h7.725V32.219H135.41Z" transform="translate(-68.543 -0.191)" fill="#043f83"/>
      <path id="Path_19621" data-name="Path 19621" d="M135.238,4.367A4.034,4.034,0,1,1,139.273,8.4,4.021,4.021,0,0,1,135.238,4.367Zm.172,6.095h7.725V32.219H135.41Z" transform="translate(-68.543 -0.191)" fill="#043f83"/>
      <path id="Path_19622" data-name="Path 19622" d="M181.581,28.449v13.6h-7.725V30.337a3.093,3.093,0,0,0-6.18,0V42.053h-7.724V20.3h7.724v2.317A6.9,6.9,0,0,1,173.6,19.78c6.823,0,7.982,5.493,7.982,8.669" transform="translate(-81.069 -10.025)" fill="#043f83"/>
      <path id="Path_19623" data-name="Path 19623" d="M181.581,28.449v13.6h-7.725V30.337a3.093,3.093,0,0,0-6.18,0V42.053h-7.724V20.3h7.724v2.317A6.9,6.9,0,0,1,173.6,19.78C180.422,19.78,181.581,25.273,181.581,28.449Z" transform="translate(-81.069 -10.025)" fill="#043f83"/>
      <path id="Path_19624" data-name="Path 19624" d="M233.418,20.3v19.87c0,6.309-4.507,10.557-12.231,10.557-4.506,0-8.883-1.673-10.643-4.721l5.707-3.39a5.728,5.728,0,0,0,4.549,1.845c3.948,0,4.892-1.974,4.892-5.064v-.387a7.451,7.451,0,0,1-5.665,2.06c-6.48,0-10.128-4.936-10.128-10.643s3.519-10.643,10.128-10.643a7.345,7.345,0,0,1,5.665,2.189V20.3Zm-7.982,10.128a3.638,3.638,0,0,0-3.862-3.905,3.694,3.694,0,0,0-3.905,3.905,3.694,3.694,0,0,0,3.905,3.905,3.639,3.639,0,0,0,3.862-3.905" transform="translate(-106.385 -10.025)" fill="#043f83"/>
      <path id="Path_19625" data-name="Path 19625" d="M233.418,20.3v19.87c0,6.309-4.507,10.557-12.231,10.557-4.506,0-8.883-1.673-10.643-4.721l5.707-3.39a5.728,5.728,0,0,0,4.549,1.845c3.948,0,4.892-1.974,4.892-5.064v-.387a7.451,7.451,0,0,1-5.665,2.06c-6.48,0-10.128-4.936-10.128-10.643s3.519-10.643,10.128-10.643a7.345,7.345,0,0,1,5.665,2.189V20.3Zm-7.982,10.128a3.638,3.638,0,0,0-3.862-3.905,3.694,3.694,0,0,0-3.905,3.905,3.694,3.694,0,0,0,3.905,3.905A3.639,3.639,0,0,0,225.436,30.424Z" transform="translate(-106.385 -10.025)" fill="#043f83"/>
      <path id="Path_19626" data-name="Path 19626" d="M296.878,20.825l-7.3,21.758H283.23l-3.6-11.244-3.605,11.244h-6.352l-7.3-21.758h8.154l2.961,11.244,3.562-11.244h5.15l3.562,11.244,2.961-11.244Z" transform="translate(-132.98 -10.555)" fill="#043f83"/>
      <path id="Path_19627" data-name="Path 19627" d="M296.878,20.825l-7.3,21.758H283.23l-3.6-11.244-3.605,11.244h-6.352l-7.3-21.758h8.154l2.961,11.244,3.562-11.244h5.15l3.562,11.244,2.961-11.244Z" transform="translate(-132.98 -10.555)" fill="#043f83"/>
      <path id="Path_19628" data-name="Path 19628" d="M356.12,31.2c0,6.652-4.892,11.415-11.673,11.415S332.774,37.849,332.774,31.2s4.892-11.416,11.673-11.416S356.12,24.545,356.12,31.2m-7.81,0a3.884,3.884,0,1,0-7.768,0,3.884,3.884,0,0,0,7.768,0" transform="translate(-168.661 -10.026)" fill="#043f83"/>
      <path id="Path_19629" data-name="Path 19629" d="M356.12,31.2c0,6.652-4.892,11.415-11.673,11.415S332.774,37.849,332.774,31.2s4.892-11.416,11.673-11.416S356.12,24.545,356.12,31.2Zm-7.81,0a3.884,3.884,0,1,0-7.768,0,3.884,3.884,0,0,0,7.768,0Z" transform="translate(-168.661 -10.026)" fill="#043f83"/>
      <path id="Path_19630" data-name="Path 19630" d="M406.94,31.2c0,6.652-4.892,11.415-11.673,11.415S383.594,37.849,383.594,31.2s4.892-11.416,11.673-11.416S406.94,24.545,406.94,31.2m-7.81,0a3.884,3.884,0,1,0-7.768,0,3.884,3.884,0,0,0,7.768,0" transform="translate(-194.419 -10.026)" fill="#043f83"/>
      <path id="Path_19631" data-name="Path 19631" d="M406.94,31.2c0,6.652-4.892,11.415-11.673,11.415S383.594,37.849,383.594,31.2s4.892-11.416,11.673-11.416S406.94,24.545,406.94,31.2Zm-7.81,0a3.884,3.884,0,1,0-7.768,0,3.884,3.884,0,0,0,7.768,0Z" transform="translate(-194.419 -10.026)" fill="#043f83"/>
      <path id="Path_19632" data-name="Path 19632" d="M457.932,4.031V34.072h-7.725v-1.76a7.116,7.116,0,0,1-5.665,2.317c-6.781,0-10.128-5.708-10.128-11.415S437.762,11.8,444.542,11.8a7.236,7.236,0,0,1,5.665,2.274V4.031Zm-7.939,19.183a3.741,3.741,0,0,0-3.906-3.905,3.694,3.694,0,0,0-3.905,3.905,3.906,3.906,0,0,0,7.811,0" transform="translate(-220.176 -2.043)" fill="#043f83"/>
      <path id="Path_19633" data-name="Path 19633" d="M457.932,4.031V34.072h-7.725v-1.76a7.116,7.116,0,0,1-5.665,2.317c-6.781,0-10.128-5.708-10.128-11.415S437.762,11.8,444.542,11.8a7.236,7.236,0,0,1,5.665,2.274V4.031Zm-7.939,19.183a3.741,3.741,0,0,0-3.906-3.905,3.694,3.694,0,0,0-3.905,3.905,3.906,3.906,0,0,0,7.811,0Z" transform="translate(-220.176 -2.043)" fill="#043f83"/>
      <path id="Path_19634" data-name="Path 19634" d="M497.909,53.226A4.206,4.206,0,1,1,493.7,49.02a4.212,4.212,0,0,1,4.205,4.206" transform="translate(-248.094 -24.845)" fill="#043f83"/>
      <path id="Path_19635" data-name="Path 19635" d="M497.909,53.226A4.206,4.206,0,1,1,493.7,49.02,4.212,4.212,0,0,1,497.909,53.226Z" transform="translate(-248.094 -24.845)" fill="#1ace66"/>
    </g>
  </g>
</svg>
