<svg id="Group_39311" data-name="Group 39311" xmlns="http://www.w3.org/2000/svg" xmlns:xlink="http://www.w3.org/1999/xlink" width="134.089" height="20.817" viewBox="0 0 134.089 20.817">
  <defs>
    <clipPath id="clip-path">
      <rect id="Rectangle_4506" data-name="Rectangle 4506" width="134.089" height="20.817" fill="#a6bcd4"/>
    </clipPath>
  </defs>
  <g id="Group_39310" data-name="Group 39310" transform="translate(0 0)" clip-path="url(#clip-path)">
    <path id="Path_19759" data-name="Path 19759" d="M16.75.035a4.98,4.98,0,0,0-4.552,2.4A4.431,4.431,0,0,0,7.924.035,4.92,4.92,0,0,0,3.718,2.207V.7a.267.267,0,0,0-.261-.26H.261A.264.264,0,0,0,0,.694V14.56a.266.266,0,0,0,.261.26H3.631a.266.266,0,0,0,.261-.26V6.394A2.627,2.627,0,0,1,6.585,3.562,2.4,2.4,0,0,1,9.122,6.273v8.271a.266.266,0,0,0,.261.26h3.335a.266.266,0,0,0,.261-.26V6.377a2.638,2.638,0,0,1,2.658-2.833c1.79,0,2.537,1.165,2.537,2.711v8.272a.267.267,0,0,0,.261.26h3.249a.267.267,0,0,0,.261-.26V5.49c.018-3.858-2.537-5.456-5.2-5.456ZM31.624,12.146c-1.894,0-3.7.764-4.344,1.824a7.582,7.582,0,0,0,4.344,1.286,7.754,7.754,0,0,0,4.344-1.286c-.643-1.06-2.519-1.824-4.344-1.824M48.044,0a7.224,7.224,0,0,0-7.072,7.576,7.278,7.278,0,0,0,7.419,7.68,6.51,6.51,0,0,0,6.394-4.118.265.265,0,0,0-.174-.347L51.8,10.043a.24.24,0,0,0-.3.139,3.181,3.181,0,0,1-3.092,1.755,3.508,3.508,0,0,1-3.632-3.267H54.821a.264.264,0,0,0,.261-.243c.017-.226.035-.608.035-.955C55.151,2.833,52.493,0,48.044,0M44.882,5.995a3.24,3.24,0,0,1,6.429,0Z" transform="translate(0 0)" fill="#a6bcd4"/>
    <path id="Path_19760" data-name="Path 19760" d="M36.278,0a7.365,7.365,0,0,0-7.542,7.628,7.791,7.791,0,0,0,1.685,4.952,7.877,7.877,0,0,1,3.7-1.807A3.971,3.971,0,0,1,32.7,7.489c0-2.658,1.7-3.858,3.562-3.858s3.562,1.217,3.562,3.858a4.012,4.012,0,0,1-1.408,3.284,8.031,8.031,0,0,1,3.7,1.789A7.75,7.75,0,0,0,43.8,7.61,7.326,7.326,0,0,0,36.278,0m95.359,0a7.224,7.224,0,0,0-7.072,7.576,7.278,7.278,0,0,0,7.419,7.68,6.493,6.493,0,0,0,6.394-4.118.279.279,0,0,0-.174-.347l-2.815-.748a.239.239,0,0,0-.295.139A3.181,3.181,0,0,1,132,11.937a3.507,3.507,0,0,1-3.631-3.267h10.078a.264.264,0,0,0,.261-.243c.017-.226.034-.608.034-.955,0-4.639-2.658-7.472-7.107-7.472m-3.145,5.995a3.241,3.241,0,0,1,6.43,0ZM122.34.434h-3.232a.267.267,0,0,0-.261.261V2.137c-.487-.972-1.79-1.964-4.083-1.964a6.747,6.747,0,0,0-6.69,7.02,6.658,6.658,0,0,0,6.69,6.984,4.6,4.6,0,0,0,4.013-1.841V13.4c0,2.781-1.373,4-3.822,4a3.218,3.218,0,0,1-3.3-2.468.258.258,0,0,0-.313-.191l-3.023.8a.265.265,0,0,0-.192.295c.521,2.642,3.111,4.97,6.951,4.97,5.4,0,7.541-3.6,7.541-7.541V.7a.283.283,0,0,0-.278-.261m-6.9,10.409a3.365,3.365,0,0,1-3.458-3.649,3.429,3.429,0,1,1,6.846,0,3.34,3.34,0,0,1-3.388,3.649M69.518.052a4.8,4.8,0,0,0-4.153,2.172V.695a.267.267,0,0,0-.26-.26h-3.25a.266.266,0,0,0-.26.26V14.561a.266.266,0,0,0,.26.26h3.372a.266.266,0,0,0,.26-.26V6.551a2.712,2.712,0,0,1,2.694-2.989c1.877,0,2.658,1.251,2.658,2.867v8.133a.267.267,0,0,0,.261.26H74.47a.266.266,0,0,0,.26-.26V5.752c0-3.145-1.633-5.7-5.213-5.7ZM99.839,0c-3.788,0-5.856,2.4-6.151,4.622-.018.07.035.122.1.139l3.2.678a.136.136,0,0,0,.156-.1,2.554,2.554,0,0,1,2.728-2.207c1.633,0,2.433.851,2.433,1.877,0,.5-.261.9-1.077,1.025l-3.545.521c-2.4.347-4.292,1.789-4.292,4.361,0,2.259,1.876,4.326,4.934,4.326a4.818,4.818,0,0,0,4.222-2.1v1.425a.266.266,0,0,0,.261.26h3.041a.267.267,0,0,0,.261-.26V5.473c-.018-2.9-1.7-5.473-6.273-5.473m2.467,9c0,2.537-1.512,3.335-3.162,3.335a1.7,1.7,0,0,1-1.877-1.668,1.8,1.8,0,0,1,1.79-1.807l3.249-.5ZM91.064.434H87.832a.266.266,0,0,0-.26.261V2.137C87.085,1.165,85.763.173,83.487.173a6.747,6.747,0,0,0-6.69,7.02,6.658,6.658,0,0,0,6.69,6.984A4.6,4.6,0,0,0,87.5,12.337V13.4c0,2.781-1.374,4-3.823,4a3.219,3.219,0,0,1-3.3-2.468.258.258,0,0,0-.313-.191l-3.023.8a.263.263,0,0,0-.191.295c.521,2.642,3.109,4.97,6.95,4.97,5.4,0,7.541-3.6,7.541-7.541V.7a.3.3,0,0,0-.277-.261Zm-6.9,10.409a3.365,3.365,0,0,1-3.458-3.649,3.429,3.429,0,1,1,6.846,0,3.34,3.34,0,0,1-3.388,3.649" transform="translate(-4.654 0)" fill="#a6bcd4"/>
  </g>
</svg>
