<svg xmlns="http://www.w3.org/2000/svg" width="107.793" height="39.588" viewBox="0 0 107.793 39.588">
  <g id="clevertap-logo-freelogovectors.net_-01" transform="translate(0.009 -0.003)">
    <path id="Path_19761" data-name="Path 19761" d="M21.3,39.592A21.273,21.273,0,0,1,10.022.26a1.7,1.7,0,1,1,1.8,2.9h0a17.861,17.861,0,1,0,18.872,30.33,1.7,1.7,0,1,1,1.8,2.888A21.142,21.142,0,0,1,21.3,39.592" transform="translate(0 0)" fill="#a6bcd4"/>
    <path id="Path_19762" data-name="Path 19762" d="M56.266,48.42A1.779,1.779,0,1,1,55,48.939a1.785,1.785,0,0,1,1.262-.519" transform="translate(-20.111 -17.87)" fill="#a6bcd4"/>
    <path id="Path_19763" data-name="Path 19763" d="M24.057,23.556a7.047,7.047,0,0,1,6.858-7.237h.372A6.94,6.94,0,0,1,37.269,19.6L34.9,20.976a4.013,4.013,0,0,0-3.615-1.987,4.316,4.316,0,0,0-4.517,4.1,3.843,3.843,0,0,0,0,.467,4.309,4.309,0,0,0,4.057,4.549h.461A4,4,0,0,0,34.9,26.137l2.366,1.375a6.89,6.89,0,0,1-5.981,3.281,7.06,7.06,0,0,1-7.23-6.89,3.155,3.155,0,0,1,0-.347" transform="translate(-8.881 -6.022)" fill="#a6bcd4"/>
    <rect id="Rectangle_4507" data-name="Rectangle 4507" width="2.562" height="14.505" transform="translate(30.117 9.982)" fill="#a6bcd4"/>
    <path id="Path_19764" data-name="Path 19764" d="M60.171,30.788A2.751,2.751,0,0,0,62.4,29.8L64.468,31a5.047,5.047,0,0,1-4.334,2.126,5.113,5.113,0,0,1-5.445-5.243,5.079,5.079,0,0,1,4.9-5.249h.347a5.043,5.043,0,0,1,5.047,5.249,5.823,5.823,0,0,1-.095,1.047H57.37a2.628,2.628,0,0,0,2.8,1.893M62.4,26.964a2.423,2.423,0,0,0-2.467-2.038,2.48,2.48,0,0,0-2.6,2.006Z" transform="translate(-20.187 -8.351)" fill="#a6bcd4"/>
    <path id="Path_19765" data-name="Path 19765" d="M81.887,23.06,78.114,33H75.193L71.42,23.06h2.82l2.4,6.959,2.423-6.959Z" transform="translate(-26.363 -8.51)" fill="#a6bcd4"/>
    <path id="Path_19766" data-name="Path 19766" d="M93.987,30.784a2.751,2.751,0,0,0,2.227-.984l2.063,1.186a5.047,5.047,0,0,1-4.334,2.126A5.113,5.113,0,0,1,88.5,27.869a5.079,5.079,0,0,1,4.9-5.249h.353a5.043,5.043,0,0,1,5.047,5.249,5.306,5.306,0,0,1-.1,1.047H91.186a2.632,2.632,0,0,0,2.8,1.893m2.227-3.855a2.423,2.423,0,0,0-2.461-2.006,2.48,2.48,0,0,0-2.6,2.006Z" transform="translate(-32.665 -8.347)" fill="#a6bcd4"/>
    <path id="Path_19767" data-name="Path 19767" d="M128.917,19.388h-3.754V30.676h-2.738V19.388H118.69V16.77h10.227Z" transform="translate(-43.809 -6.188)" fill="#a6bcd4"/>
    <path id="Path_19768" data-name="Path 19768" d="M144.085,22.914v9.937h-2.562V31.709a3.962,3.962,0,0,1-3.237,1.451,5.022,5.022,0,0,1-4.827-5.243,5.028,5.028,0,0,1,4.827-5.249,3.975,3.975,0,0,1,3.237,1.451v-1.2Zm-2.562,4.972a2.675,2.675,0,0,0-2.524-2.8,1.363,1.363,0,0,0-.227,0,2.662,2.662,0,0,0-2.745,2.58v.221a2.662,2.662,0,0,0,2.524,2.795,1.218,1.218,0,0,0,.215,0,2.662,2.662,0,0,0,2.763-2.574v-.221Z" transform="translate(-49.261 -8.364)" fill="#a6bcd4"/>
    <path id="Path_19769" data-name="Path 19769" d="M164.618,27.881a5.025,5.025,0,0,1-4.845,5.243,3.874,3.874,0,0,1-3.218-1.451v5.142H154V22.935h2.562v1.174a3.855,3.855,0,0,1,3.218-1.451,5.027,5.027,0,0,1,4.845,5.249m-2.562,0a2.669,2.669,0,0,0-2.524-2.8,1.363,1.363,0,0,0-.227,0,2.662,2.662,0,0,0-2.789,2.562v.215a2.663,2.663,0,0,0,2.524,2.795,1.218,1.218,0,0,0,.215,0,2.662,2.662,0,0,0,2.763-2.574c0-.076,0-.151,0-.221Z" transform="translate(-56.841 -8.359)" fill="#a6bcd4"/>
    <path id="Path_19770" data-name="Path 19770" d="M110.264,32.836H107.74v-10.2h3.539A4.145,4.145,0,0,1,115.7,26.42l-2.524.353c-.221-1.521-1.262-1.628-1.722-1.6h-1.142Z" transform="translate(-39.768 -8.349)" fill="#a6bcd4"/>
  </g>
</svg>
