<svg id="Layer_2" data-name="Layer 2" xmlns="http://www.w3.org/2000/svg" width="128" height="108.218" viewBox="0 0 128 108.218">
  <g id="Layer_1" data-name="Layer 1">
    <path id="Path_19808" data-name="Path 19808" d="M146.432,88.05a1.7,1.7,0,0,0-.582-.413,1.984,1.984,0,0,0-.82-.157,2.211,2.211,0,0,0-1.489.529,1.955,1.955,0,0,0-.681,1.361h4.009a2.42,2.42,0,0,0-.1-.716A1.658,1.658,0,0,0,146.432,88.05Z" transform="translate(-59.741 -36.582)" fill="#a6bcd4"/>
    <path id="Path_19809" data-name="Path 19809" d="M90.956,88.483a2.176,2.176,0,0,0-3.421,0,2.368,2.368,0,0,0-.413.809,3.008,3.008,0,0,0-.122.89,3.113,3.113,0,0,0,.14.913,2.4,2.4,0,0,0,.413.815,2.2,2.2,0,0,0,.7.582,2.327,2.327,0,0,0,2.025,0,2.2,2.2,0,0,0,.7-.582,2.519,2.519,0,0,0,.419-.815,3.3,3.3,0,0,0,.116-.913,3.194,3.194,0,0,0-.134-.9A2.49,2.49,0,0,0,90.956,88.483Z" transform="translate(-36.382 -36.654)" fill="#a6bcd4"/>
    <path id="Path_19810" data-name="Path 19810" d="M129.223,88.528a2.467,2.467,0,0,0-.727-.582,1.984,1.984,0,0,0-.96-.227,2.158,2.158,0,0,0-.995.215,2.2,2.2,0,0,0-.7.582,2.49,2.49,0,0,0-.419.809,3,3,0,0,0-.134.9,3.1,3.1,0,0,0,.134.913,2.519,2.519,0,0,0,.419.815,2.2,2.2,0,0,0,.7.582,2.025,2.025,0,0,0,.995.233,2.048,2.048,0,0,0,.96-.233,2.281,2.281,0,0,0,.727-.582,2.607,2.607,0,0,0,.454-.8,2.711,2.711,0,0,0,.157-.908,2.758,2.758,0,0,0-.157-.908A2.6,2.6,0,0,0,129.223,88.528Z" transform="translate(-52.394 -36.682)" fill="#a6bcd4"/>
    <path id="Path_19811" data-name="Path 19811" d="M126.255,67H1.745A1.745,1.745,0,0,0,0,68.745V92.018a1.745,1.745,0,0,0,1.745,1.745H126.255A1.745,1.745,0,0,0,128,92.018V68.745A1.745,1.745,0,0,0,126.255,67ZM41.344,78.916a2.909,2.909,0,0,1-.972,1.053,4.171,4.171,0,0,1-1.425.582,7.831,7.831,0,0,1-1.745.18H35.642V85.5H33.588V73.982h3.764a8.088,8.088,0,0,1,1.792.18,3.747,3.747,0,0,1,1.367.582,2.682,2.682,0,0,1,.879,1.041,3.491,3.491,0,0,1,.308,1.53A3.3,3.3,0,0,1,41.344,78.916Zm6.5.378a2.7,2.7,0,0,0-.337-.07h-.268a2.089,2.089,0,0,0-1.076.244,1.984,1.984,0,0,0-.634.582,2.135,2.135,0,0,0-.308.7,2.874,2.874,0,0,0-.081.582v4.189H43.183V77.676h1.873v1.3h.035A2.863,2.863,0,0,1,46,77.874a2.327,2.327,0,0,1,1.373-.4h.244a.879.879,0,0,1,.227.041Zm8.943,3.956a4.073,4.073,0,0,1-.931,1.309,4.154,4.154,0,0,1-1.35.861,4.655,4.655,0,0,1-3.328,0,4.154,4.154,0,0,1-1.35-.861,3.956,3.956,0,0,1-.9-1.309,4.131,4.131,0,0,1-.314-1.7,4.073,4.073,0,0,1,.337-1.687A3.892,3.892,0,0,1,51.2,77.746a4.812,4.812,0,0,1,3.328,0,3.9,3.9,0,0,1,1.327.832,3.98,3.98,0,0,1,.908,1.292,4.178,4.178,0,0,1,.332,1.687A4.224,4.224,0,0,1,56.785,83.25ZM62.836,85.5H60.753L57.6,77.676h2.135l2.054,5.708h0l2.071-5.708h2.065Zm6.3,0H67.177V77.676h1.955Zm-.087-9.641a1.274,1.274,0,0,1-.9.337,1.2,1.2,0,0,1-.89-.349,1.164,1.164,0,0,1-.349-.826,1.123,1.123,0,0,1,.349-.82,1.2,1.2,0,0,1,.89-.349,1.3,1.3,0,0,1,.9.332,1.164,1.164,0,0,1,0,1.676ZM79.331,85.5H77.469V84.338H77.44a2.688,2.688,0,0,1-1.135,1.041,3.491,3.491,0,0,1-1.553.361,3.741,3.741,0,0,1-1.606-.337,3.625,3.625,0,0,1-1.2-.9,4,4,0,0,1-.768-1.315,4.8,4.8,0,0,1-.268-1.623,4.579,4.579,0,0,1,.279-1.612,3.817,3.817,0,0,1,.78-1.321,3.6,3.6,0,0,1,1.2-.873,3.7,3.7,0,0,1,1.53-.32,3.491,3.491,0,0,1,.966.122,3.619,3.619,0,0,1,.739.3,3.136,3.136,0,0,1,.547.39,3.763,3.763,0,0,1,.372.407h.058V73.185h1.955Zm9.757-3.555a1.98,1.98,0,0,1,0,.262H83.124a1.99,1.99,0,0,0,.221.774,1.914,1.914,0,0,0,.5.582,2.38,2.38,0,0,0,1.513.547,2.6,2.6,0,0,0,1.239-.268,2.362,2.362,0,0,0,.832-.739l1.3,1.041a3.927,3.927,0,0,1-3.357,1.565,4.881,4.881,0,0,1-1.681-.285,4.073,4.073,0,0,1-1.327-.809,3.642,3.642,0,0,1-.879-1.28,4.445,4.445,0,0,1-.314-1.745,4.509,4.509,0,0,1,.314-1.745,3.793,3.793,0,0,1,.873-1.321,3.857,3.857,0,0,1,1.309-.849,4.469,4.469,0,0,1,1.641-.3,4.253,4.253,0,0,1,1.507.268,3.229,3.229,0,0,1,1.193.8,3.59,3.59,0,0,1,.791,1.321,5.364,5.364,0,0,1,.285,1.844Zm6.5-2.653a2.7,2.7,0,0,0-.337-.07h-.268a2.077,2.077,0,0,0-1.076.244,1.984,1.984,0,0,0-.634.582,2.135,2.135,0,0,0-.308.7,2.873,2.873,0,0,0-.081.582v4.189H90.927V77.676H92.8v1.3h.029a2.909,2.909,0,0,1,.913-1.105,2.327,2.327,0,0,1,1.367-.425h.244a.926.926,0,0,1,.233.041Z" transform="translate(0 -28.018)" fill="#a6bcd4"/>
    <path id="Path_19812" data-name="Path 19812" d="M64.477,82.231a2.4,2.4,0,0,0-.8-.233,6.785,6.785,0,0,0-.919-.058h-1.5v3.3h1.431a6.313,6.313,0,0,0,.96-.07,2.793,2.793,0,0,0,.815-.262,1.519,1.519,0,0,0,.582-.512,1.559,1.559,0,0,0,.215-.849,1.391,1.391,0,0,0-.774-1.321Z" transform="translate(-25.618 -34.266)" fill="#a6bcd4"/>
    <path id="Path_19813" data-name="Path 19813" d="M55.925,133.289a.937.937,0,0,0-.332-.256,1.03,1.03,0,0,0-.425-.1,1.233,1.233,0,0,0-.256,0,.937.937,0,0,0-.233.1.623.623,0,0,0-.175.175.489.489,0,0,0-.064.262.454.454,0,0,0,.058.239.477.477,0,0,0,.157.169,1.111,1.111,0,0,0,.25.122l.32.1c.128.041.268.087.407.145a1.42,1.42,0,0,1,.39.215,1.03,1.03,0,0,1,.291.337,1.018,1.018,0,0,1,.116.506,1.274,1.274,0,0,1-.122.582,1.21,1.21,0,0,1-.326.413,1.606,1.606,0,0,1-.477.244,2.118,2.118,0,0,1-.582.081,2.164,2.164,0,0,1-.785-.151,1.53,1.53,0,0,1-.628-.436l.524-.489a1.03,1.03,0,0,0,.4.332,1.164,1.164,0,0,0,.5.122,1.082,1.082,0,0,0,.262-.035.625.625,0,0,0,.413-.3.524.524,0,0,0,.07-.279.506.506,0,0,0-.076-.273.785.785,0,0,0-.2-.186,1.321,1.321,0,0,0-.3-.134l-.367-.122c-.128-.041-.25-.087-.372-.14a1.192,1.192,0,0,1-.337-.215.989.989,0,0,1-.239-.332,1.082,1.082,0,0,1-.093-.483,1.065,1.065,0,0,1,.128-.541,1.164,1.164,0,0,1,.343-.378,1.594,1.594,0,0,1,.483-.221,2.217,2.217,0,0,1,.582-.07,1.891,1.891,0,0,1,.634.111,1.577,1.577,0,0,1,.582.332Z" transform="translate(-22.377 -55.325)" fill="#a6bcd4"/>
    <path id="Path_19814" data-name="Path 19814" d="M60.05,134.453a2.327,2.327,0,0,1,.163-.9,1.961,1.961,0,0,1,.46-.675,2.042,2.042,0,0,1,.7-.431,2.542,2.542,0,0,1,.884-.151,2.6,2.6,0,0,1,.89.151,2.066,2.066,0,0,1,.7.431,1.961,1.961,0,0,1,.46.675,2.327,2.327,0,0,1,.169.9,2.252,2.252,0,0,1-.169.879,2.007,2.007,0,0,1-.46.687,2.112,2.112,0,0,1-.7.448,2.5,2.5,0,0,1-1.775,0,2.083,2.083,0,0,1-.7-.448,2.007,2.007,0,0,1-.46-.687,2.252,2.252,0,0,1-.163-.879Zm.8,0a1.67,1.67,0,0,0,.1.582,1.39,1.39,0,0,0,.291.483,1.355,1.355,0,0,0,.448.314,1.484,1.484,0,0,0,1.164,0,1.356,1.356,0,0,0,.448-.314,1.39,1.39,0,0,0,.291-.483,1.67,1.67,0,0,0,.1-.582,1.629,1.629,0,0,0-.1-.582,1.449,1.449,0,0,0-.285-.477,1.292,1.292,0,0,0-.448-.32,1.46,1.46,0,0,0-.582-.116,1.443,1.443,0,0,0-.582.116,1.216,1.216,0,0,0-.442.32,1.367,1.367,0,0,0-.291.477A1.629,1.629,0,0,0,60.847,134.453Z" transform="translate(-25.112 -55.325)" fill="#a6bcd4"/>
    <path id="Path_19815" data-name="Path 19815" d="M69.48,132.49h.733v3.491h1.745v.652H69.48Z" transform="translate(-29.055 -55.405)" fill="#a6bcd4"/>
    <path id="Path_19816" data-name="Path 19816" d="M78.206,135.127a1.745,1.745,0,0,1-.128.669,1.536,1.536,0,0,1-.349.512,1.606,1.606,0,0,1-.524.32,1.885,1.885,0,0,1-.657.116,1.833,1.833,0,0,1-.657-.116,1.571,1.571,0,0,1-.529-.32,1.385,1.385,0,0,1-.349-.512,1.746,1.746,0,0,1-.122-.669V132.52h.733V135.1a1.239,1.239,0,0,0,.047.355.856.856,0,0,0,.151.32.8.8,0,0,0,.285.227,1,1,0,0,0,.442.087.972.972,0,0,0,.436-.087.8.8,0,0,0,.285-.227.966.966,0,0,0,.157-.32,1.484,1.484,0,0,0,.047-.355V132.52h.733Z" transform="translate(-31.317 -55.417)" fill="#a6bcd4"/>
    <path id="Path_19817" data-name="Path 19817" d="M83.233,133.13H82v-.64h3.258v.64H83.967v3.491h-.733Z" transform="translate(-34.291 -55.405)" fill="#a6bcd4"/>
    <path id="Path_19818" data-name="Path 19818" d="M89,132.49h.733v4.119H89Z" transform="translate(-37.218 -55.405)" fill="#a6bcd4"/>
    <path id="Path_19819" data-name="Path 19819" d="M92.05,134.453a2.328,2.328,0,0,1,.163-.9,1.961,1.961,0,0,1,.46-.675,2.042,2.042,0,0,1,.7-.431,2.542,2.542,0,0,1,.884-.151,2.6,2.6,0,0,1,.89.151,2.065,2.065,0,0,1,.7.431,1.961,1.961,0,0,1,.46.675,2.328,2.328,0,0,1,.169.9,2.251,2.251,0,0,1-.169.879,2.007,2.007,0,0,1-.46.687,2.112,2.112,0,0,1-.7.448,2.5,2.5,0,0,1-1.775,0,2.083,2.083,0,0,1-.7-.448,2.007,2.007,0,0,1-.46-.687A2.251,2.251,0,0,1,92.05,134.453Zm.8,0a1.67,1.67,0,0,0,.1.582,1.39,1.39,0,0,0,.291.483,1.355,1.355,0,0,0,.448.314,1.484,1.484,0,0,0,1.164,0,1.355,1.355,0,0,0,.448-.314,1.39,1.39,0,0,0,.291-.483,1.67,1.67,0,0,0,.1-.582,1.629,1.629,0,0,0-.1-.582,1.449,1.449,0,0,0-.285-.477,1.292,1.292,0,0,0-.448-.32,1.46,1.46,0,0,0-.582-.116,1.443,1.443,0,0,0-.582.116,1.216,1.216,0,0,0-.442.32,1.367,1.367,0,0,0-.291.477A1.629,1.629,0,0,0,92.847,134.453Z" transform="translate(-38.493 -55.325)" fill="#a6bcd4"/>
    <path id="Path_19820" data-name="Path 19820" d="M101.48,132.49h.972l1.914,3.084h0V132.49h.733v4.119h-.931l-1.955-3.183h0v3.183h-.733Z" transform="translate(-42.437 -55.405)" fill="#a6bcd4"/>
    <path id="Path_19821" data-name="Path 19821" d="M111.755,133.289a.937.937,0,0,0-.332-.256,1.03,1.03,0,0,0-.425-.1,1.233,1.233,0,0,0-.256,0,.937.937,0,0,0-.233.1.623.623,0,0,0-.175.175.489.489,0,0,0-.064.262.454.454,0,0,0,.058.239.477.477,0,0,0,.157.169,1.111,1.111,0,0,0,.25.122l.32.1c.128.041.268.087.407.145a1.42,1.42,0,0,1,.39.215,1.03,1.03,0,0,1,.291.337,1.018,1.018,0,0,1,.116.506,1.274,1.274,0,0,1-.122.582,1.21,1.21,0,0,1-.326.413,1.606,1.606,0,0,1-.477.244,2.118,2.118,0,0,1-.582.081,2.164,2.164,0,0,1-.785-.151,1.53,1.53,0,0,1-.628-.436l.524-.489a1.03,1.03,0,0,0,.4.332,1.164,1.164,0,0,0,.5.122,1.082,1.082,0,0,0,.262-.035.625.625,0,0,0,.413-.3.524.524,0,0,0,.07-.279.506.506,0,0,0-.076-.273.786.786,0,0,0-.2-.186,1.321,1.321,0,0,0-.3-.134l-.367-.122c-.128-.041-.25-.087-.372-.14a1.192,1.192,0,0,1-.337-.215.989.989,0,0,1-.239-.332,1.082,1.082,0,0,1-.093-.483,1.065,1.065,0,0,1,.128-.541,1.164,1.164,0,0,1,.343-.378,1.594,1.594,0,0,1,.483-.221,2.217,2.217,0,0,1,.582-.07,1.891,1.891,0,0,1,.634.111,1.577,1.577,0,0,1,.582.332Z" transform="translate(-45.724 -55.325)" fill="#a6bcd4"/>
    <path id="Path_19822" data-name="Path 19822" d="M119.307,132.49h1.344a2.741,2.741,0,0,1,.64.064,1.327,1.327,0,0,1,.489.209.978.978,0,0,1,.314.372,1.292,1.292,0,0,1,.111.547,1.239,1.239,0,0,1-.128.582,1.071,1.071,0,0,1-.349.372,1.525,1.525,0,0,1-.506.209,3.038,3.038,0,0,1-.617.064h-.582v1.7h-.733Zm1.245,1.8a2.215,2.215,0,0,0,.343-.029.948.948,0,0,0,.291-.093.576.576,0,0,0,.2-.78.535.535,0,0,0-.2-.175,1.024,1.024,0,0,0-.285-.087,2.983,2.983,0,0,0-.326,0h-.535v1.164Z" transform="translate(-49.885 -55.405)" fill="#a6bcd4"/>
    <path id="Path_19823" data-name="Path 19823" d="M126.352,132.49h.634l1.745,4.119H127.9l-.384-.943h-1.769l-.367.943h-.82Zm.925,2.548-.628-1.67-.669,1.67Z" transform="translate(-52.089 -55.405)" fill="#a6bcd4"/>
    <path id="Path_19824" data-name="Path 19824" d="M133.08,132.49h1.431a2.618,2.618,0,0,1,.582.058,1.443,1.443,0,0,1,.483.2,1.094,1.094,0,0,1,.343.367,1.164,1.164,0,0,1,.128.582,1.047,1.047,0,0,1-.256.727,1.233,1.233,0,0,1-.687.384l1.1,1.827h-.9l-.954-1.745h-.535v1.745h-.733Zm1.332,1.745a2.854,2.854,0,0,0,.314,0,.984.984,0,0,0,.279-.087.64.64,0,0,0,.209-.186.53.53,0,0,0,.081-.3.524.524,0,0,0-.076-.279.582.582,0,0,0-.192-.169.692.692,0,0,0-.268-.087,1.611,1.611,0,0,0-.285,0h-.663v1.164Z" transform="translate(-55.652 -55.405)" fill="#a6bcd4"/>
    <path id="Path_19825" data-name="Path 19825" d="M140.373,133.13H139.11v-.64h3.258v.64h-1.263v3.491h-.733Z" transform="translate(-58.173 -55.405)" fill="#a6bcd4"/>
    <path id="Path_19826" data-name="Path 19826" d="M146.13,132.49h.972l1.914,3.084h0V132.49h.733v4.119h-.925l-1.961-3.183h0v3.183h-.733Z" transform="translate(-61.109 -55.405)" fill="#a6bcd4"/>
    <path id="Path_19827" data-name="Path 19827" d="M154.513,132.49h2.729v.64h-2v1.047h1.868v.617h-1.891v1.164h2.1v.652H154.49Z" transform="translate(-64.605 -55.405)" fill="#a6bcd4"/>
    <path id="Path_19828" data-name="Path 19828" d="M161.213,132.49h1.431a2.523,2.523,0,0,1,.582.058,1.419,1.419,0,0,1,.489.2,1.024,1.024,0,0,1,.337.367,1.094,1.094,0,0,1,.128.582,1.041,1.041,0,0,1-.25.727,1.233,1.233,0,0,1-.687.384l1.094,1.827h-.931l-.954-1.745h-.535v1.745h-.727Zm1.332,1.745a3.074,3.074,0,0,0,.314,0,1.046,1.046,0,0,0,.279-.087.64.64,0,0,0,.209-.186.529.529,0,0,0,.076-.3.477.477,0,0,0-.076-.279.494.494,0,0,0-.192-.169.634.634,0,0,0-.262-.087,1.682,1.682,0,0,0-.291,0h-.663v1.164Z" transform="translate(-67.407 -55.405)" fill="#a6bcd4"/>
    <path id="Path_19829" data-name="Path 19829" d="M83.4,147.49h1.344a2.711,2.711,0,0,1,.64.064,1.245,1.245,0,0,1,.489.209.977.977,0,0,1,.314.372,1.2,1.2,0,0,1,.111.547,1.164,1.164,0,0,1-.128.582,1.053,1.053,0,0,1-.343.372,1.553,1.553,0,0,1-.512.209,2.989,2.989,0,0,1-.617.064h-.582v1.7H83.4Zm1.245,1.8a2.153,2.153,0,0,0,.343-.029.9.9,0,0,0,.291-.093.512.512,0,0,0,.2-.18.541.541,0,0,0,.076-.3.512.512,0,0,0-.064-.314.518.518,0,0,0-.2-.175,1.088,1.088,0,0,0-.285-.087,3.163,3.163,0,0,0-.332,0h-.535v1.164Z" transform="translate(-34.876 -61.677)" fill="#a6bcd4"/>
    <path id="Path_19830" data-name="Path 19830" d="M90.1,147.49h1.431a2.578,2.578,0,0,1,.582.058,1.524,1.524,0,0,1,.489.2,1.076,1.076,0,0,1,.337.367,1.094,1.094,0,0,1,.128.582,1.041,1.041,0,0,1-.25.727,1.251,1.251,0,0,1-.692.384l1.1,1.827h-.9l-.954-1.745h-.535v1.745H90.1Zm1.332,1.745a2.847,2.847,0,0,0,.314,0,1.088,1.088,0,0,0,.285-.087.582.582,0,0,0,.2-.186.53.53,0,0,0,.081-.3.477.477,0,0,0-.076-.279.582.582,0,0,0-.192-.169.634.634,0,0,0-.262-.087,1.681,1.681,0,0,0-.291,0h-.663v1.164Z" transform="translate(-37.678 -61.677)" fill="#a6bcd4"/>
    <path id="Path_19831" data-name="Path 19831" d="M96.65,149.453a2.327,2.327,0,0,1,.169-.9,1.96,1.96,0,0,1,.46-.675,1.937,1.937,0,0,1,.7-.431,2.508,2.508,0,0,1,.879-.151,2.6,2.6,0,0,1,.89.151,2.013,2.013,0,0,1,.7.431,1.972,1.972,0,0,1,.465.675,2.327,2.327,0,0,1,.163.9,2.252,2.252,0,0,1-.163.879,2.019,2.019,0,0,1-.465.687,2.054,2.054,0,0,1-.7.448,2.327,2.327,0,0,1-.89.163,2.269,2.269,0,0,1-.879-.163,1.973,1.973,0,0,1-.7-.448,2.007,2.007,0,0,1-.46-.687A2.252,2.252,0,0,1,96.65,149.453Zm.785,0a1.67,1.67,0,0,0,.1.582,1.344,1.344,0,0,0,.739.8,1.385,1.385,0,0,0,.582.116,1.437,1.437,0,0,0,.582-.116,1.379,1.379,0,0,0,.454-.314,1.489,1.489,0,0,0,.291-.483,1.809,1.809,0,0,0,.1-.582,1.745,1.745,0,0,0-.1-.582,1.46,1.46,0,0,0-.291-.477,1.239,1.239,0,0,0-.448-.32,1.443,1.443,0,0,0-.582-.116,1.4,1.4,0,0,0-.582.116,1.239,1.239,0,0,0-.448.32,1.356,1.356,0,0,0-.285.477A1.629,1.629,0,0,0,97.435,149.453Z" transform="translate(-40.417 -61.598)" fill="#a6bcd4"/>
    <path id="Path_19832" data-name="Path 19832" d="M109.545,151.319a3.176,3.176,0,0,1-.687.233,3.863,3.863,0,0,1-.867.087,2.432,2.432,0,0,1-.913-.163,2.077,2.077,0,0,1-.71-.448,2.106,2.106,0,0,1-.465-.687,2.362,2.362,0,0,1-.163-.879,2.217,2.217,0,0,1,.175-.9,1.908,1.908,0,0,1,.471-.675,2.013,2.013,0,0,1,.7-.431,2.565,2.565,0,0,1,.884-.151,2.8,2.8,0,0,1,.908.14,1.937,1.937,0,0,1,.657.378l-.506.547a1.251,1.251,0,0,0-.436-.3,1.554,1.554,0,0,0-.617-.122,1.472,1.472,0,0,0-.582.116,1.216,1.216,0,0,0-.454.32,1.356,1.356,0,0,0-.285.477,1.629,1.629,0,0,0-.1.582,1.67,1.67,0,0,0,.1.582,1.309,1.309,0,0,0,.291.483,1.291,1.291,0,0,0,.46.314,1.565,1.565,0,0,0,.611.116,2.2,2.2,0,0,0,.82-.145v-1.047h-.867v-.582h1.577Z" transform="translate(-44.218 -61.602)" fill="#a6bcd4"/>
    <path id="Path_19833" data-name="Path 19833" d="M114.41,147.49h1.431a2.578,2.578,0,0,1,.582.058,1.524,1.524,0,0,1,.489.2,1.076,1.076,0,0,1,.337.367,1.094,1.094,0,0,1,.128.582,1.041,1.041,0,0,1-.25.727,1.251,1.251,0,0,1-.692.384l1.1,1.827h-.884l-.954-1.745h-.535v1.745h-.733Zm1.332,1.745a2.847,2.847,0,0,0,.314,0,1.088,1.088,0,0,0,.285-.087.582.582,0,0,0,.2-.186.529.529,0,0,0,.081-.3.477.477,0,0,0-.076-.279.582.582,0,0,0-.192-.169.634.634,0,0,0-.262-.087,1.681,1.681,0,0,0-.291,0h-.663v1.164Z" transform="translate(-47.844 -61.677)" fill="#a6bcd4"/>
    <path id="Path_19834" data-name="Path 19834" d="M122.211,147.49h.634l1.745,4.119h-.838l-.384-.943h-1.786l-.372.943h-.82Zm.931,2.548-.652-1.67-.646,1.676Z" transform="translate(-50.345 -61.678)" fill="#a6bcd4"/>
    <path id="Path_19835" data-name="Path 19835" d="M129,147.49h1.164l1.071,2.909h0l1.059-2.909h1.164v4.119h-.727V148.3h0l-1.251,3.311h-.512l-1.233-3.311h0v3.311H129Z" transform="translate(-53.945 -61.678)" fill="#a6bcd4"/>
    <path id="Path_19836" data-name="Path 19836" d="M75.039,31.98v3.613H71.623V31.98H70V40.6h1.623V37.112h3.415V40.6h1.623V31.98Z" transform="translate(-29.273 -13.373)" fill="#a6bcd4"/>
    <path id="Path_19837" data-name="Path 19837" d="M87.344,39.349a1.344,1.344,0,1,1-2.688,0V35.66H83.12v3.689a2.909,2.909,0,0,0,5.748,0V35.66H87.344Z" transform="translate(-34.759 -14.912)" fill="#a6bcd4"/>
    <path id="Path_19838" data-name="Path 19838" d="M108.641,34.513a.948.948,0,0,1,1.082-1,2.327,2.327,0,0,1,1.449.745l1.007-1.164A3.188,3.188,0,0,0,109.8,32c-1.676,0-2.909.948-2.909,2.525,0,2.909,3.677,1.99,3.677,3.625a1.047,1.047,0,0,1-1.082.954,1.914,1.914,0,0,1-1.623-.89l-1.117,1.129a3.351,3.351,0,0,0,2.653,1.286,2.6,2.6,0,0,0,2.868-2.467c0-3.241-3.677-2.234-3.677-3.636" transform="translate(-44.641 -13.382)" fill="#a6bcd4"/>
    <path id="Path_19839" data-name="Path 19839" d="M147.113,39.685c-.908,0-1.164-.384-1.164-.972V36.125h1.414V34.815h-1.414V33.07l-1.559.681v5.277a2,2,0,0,0,2.275,2.031,3.224,3.224,0,0,0,.611-.047l.378-1.35h-.541" transform="translate(-60.381 -13.829)" fill="#a6bcd4"/>
    <path id="Path_19840" data-name="Path 19840" d="M98.038,34.205a2.4,2.4,0,0,0-1.809.733V32.07H94.687v5.236a3.183,3.183,0,0,0,3.089,3.345,3.334,3.334,0,0,0,3.491-3.223,3.212,3.212,0,0,0-3.2-3.223m0,4.94a1.7,1.7,0,1,1,1.745-1.7,1.745,1.745,0,0,1-1.745,1.7" transform="translate(-39.595 -13.411)" fill="#a6bcd4"/>
    <path id="Path_19841" data-name="Path 19841" d="M124.526,38.822a3.334,3.334,0,0,0-3.439-3.223A3.183,3.183,0,0,0,118,38.921v5.236h1.542V41.341a2.391,2.391,0,0,0,1.809.7,3.212,3.212,0,0,0,3.2-3.223m-1.466,0a1.745,1.745,0,1,1-1.745-1.7,1.745,1.745,0,0,1,1.745,1.7" transform="translate(-49.343 -14.886)" fill="#a6bcd4"/>
    <path id="Path_19842" data-name="Path 19842" d="M130.926,32.436v-1.5a1.164,1.164,0,0,0,.71-1.047v-.058a1.164,1.164,0,0,0-1.164-1.164h-.041a1.164,1.164,0,0,0-1.164,1.164v.035a1.164,1.164,0,0,0,.623,1.071v1.5a3.444,3.444,0,0,0-1.606.687l-4.253-3.212a1.222,1.222,0,0,0,.047-.326,1.344,1.344,0,1,0-1.344,1.3,1.408,1.408,0,0,0,.663-.175l4.166,3.188a3.206,3.206,0,0,0,.052,3.706l-1.274,1.239a1.111,1.111,0,0,0-.314-.052,1.071,1.071,0,1,0,1.105,1.071,1.03,1.03,0,0,0-.052-.3l1.257-1.222a3.491,3.491,0,0,0,2.06.675,3.287,3.287,0,0,0,.518-6.551M130.4,37.41a1.693,1.693,0,1,1,1.745-1.693A1.745,1.745,0,0,1,130.4,37.41" transform="translate(-50.764 -11.793)" fill="#a6bcd4"/>
    <path id="Path_19843" data-name="Path 19843" d="M26.309,34.327V9.309h89.6V34.327h9.309V4.713A4.713,4.713,0,0,0,120.505,0H21.713A4.713,4.713,0,0,0,17,4.713V34.327Z" transform="translate(-7.109)" fill="#a6bcd4"/>
    <path id="Path_19844" data-name="Path 19844" d="M115.909,121v28.509h-89.6V121H17v33.105a4.713,4.713,0,0,0,4.713,4.713h98.793a4.713,4.713,0,0,0,4.713-4.713V121Z" transform="translate(-7.109 -50.6)" fill="#a6bcd4"/>
  </g>
</svg>
