<svg xmlns="http://www.w3.org/2000/svg" width="177.408" height="17.467" viewBox="0 0 177.408 17.467">
  <g id="Klaviyo-partner-program-logo-singular-03182019-final" transform="translate(-40.6 -61.5)">
    <g id="Group_39307" data-name="Group 39307" transform="translate(40.6 64.05)">
      <path id="Path_19737" data-name="Path 19737" d="M45.636,72.831l4.909,7.012H47.1l-3.7-5.418v5.482H40.6V65.946h2.8v5.546l3.506-5.546h3.251Zm9.753-6.885h-2.8V79.907h7.2V77.1H55.326l.064-11.156ZM68.075,65.5,73.94,79.907H70.816l-.574-1.53H65.589l-.51,1.53H61.891L67.756,65.5Zm1.147,10.263L67.947,72.13l-1.275,3.634Zm8.67-2.04L75.023,66.01H71.9l5.865,14.407h.255L83.884,66.01H80.7Zm8.1,6.183h2.8V65.946h-2.8ZM99.948,65.946,97.08,70.727l-2.869-4.781H90.833l4.845,7.65v6.311h2.8V73.6l4.845-7.65ZM117.8,72.7a7.235,7.235,0,1,1-7.267-7.2A7.237,7.237,0,0,1,117.8,72.7Zm-2.741,0a4.526,4.526,0,1,0-4.526,4.526A4.5,4.5,0,0,0,115.056,72.7Z" transform="translate(-40.6 -65.5)" fill="#a6bcd4"/>
    </g>
    <path id="Path_19738" data-name="Path 19738" d="M168.9,79.934,172.789,65.4l3.251.892-3.634,13.642Z" transform="translate(-46.513 -1.414)" fill="#a6bcd4"/>
    <path id="Path_19739" data-name="Path 19739" d="M176.8,78.52l4.59-17.02,3.251.829L180.306,78.52Z" transform="translate(-49.377)" fill="#a6bcd4"/>
    <g id="Group_39308" data-name="Group 39308" transform="translate(140.3 64.05)">
      <path id="Path_19740" data-name="Path 19740" d="M197,80.261V66.3h5.482c5.418,0,5.418,8.606,0,8.606H199.8v5.355Zm5.291-8.032c1.849,0,1.849-3.124,0-3.124H199.8v3.124Z" transform="translate(-197 -65.79)" fill="#a6bcd4"/>
      <path id="Path_19741" data-name="Path 19741" d="M216.428,65.5h.319l5.865,14.471h-3.124l-.574-1.53h-4.654l-.574,1.53H210.5Zm1.4,10.327-1.275-3.634-1.275,3.634Z" transform="translate(-201.894 -65.5)" fill="#a6bcd4"/>
      <path id="Path_19742" data-name="Path 19742" d="M238.648,80.261l-2.8-5.355H234.5v5.355h-2.8V66.3h5.482c4.972,0,5.482,7.012,1.339,8.16l3.251,5.737-3.124.064ZM234.5,72.228h2.486c1.912,0,1.912-3.124,0-3.124H234.5Z" transform="translate(-209.58 -65.79)" fill="#a6bcd4"/>
      <path id="Path_19743" data-name="Path 19743" d="M252.842,80.3V69.141H249.4V66.4h9.753v2.741h-3.442V80.3Z" transform="translate(-215.997 -65.826)" fill="#a6bcd4"/>
      <path id="Path_19744" data-name="Path 19744" d="M270.741,80.116H268V65.9h.765l7.012,8.16v-7.9h2.8V80.371h-.765l-7.076-7.9Z" transform="translate(-222.74 -65.645)" fill="#a6bcd4"/>
      <path id="Path_19745" data-name="Path 19745" d="M288.6,80.261V66.3h7.012v2.8H291.4v2.8h3.7v2.8h-3.7v2.8h4.4v2.8h-7.2Z" transform="translate(-230.208 -65.79)" fill="#a6bcd4"/>
      <path id="Path_19746" data-name="Path 19746" d="M310.048,80.261l-2.8-5.355H305.9v5.355h-2.8V66.3h5.482c4.972,0,5.482,7.012,1.339,8.16l3.251,5.737-3.124.064ZM305.9,72.228h2.486c1.912,0,1.912-3.124,0-3.124H305.9Z" transform="translate(-235.464 -65.79)" fill="#a6bcd4"/>
    </g>
  </g>
</svg>
